<svg width="13" height="13" viewBox="0 0 13 13" fill="none" xmlns="http://www.w3.org/2000/svg">
<path d="M7.00005 0.5C6.98922 0.500011 6.97838 0.500016 6.96755 0.500016C8.56216 0.498422 10.0921 1.13035 11.2208 2.25678C12.3495 3.38322 12.9845 4.91189 12.9861 6.5065C12.9877 8.10111 12.3557 9.63105 11.2293 10.7597C10.1029 11.8884 8.57419 12.5234 6.97958 12.525C6.9864 12.525 6.99322 12.525 7.00005 12.525C5.40544 12.525 3.87613 11.8915 2.74857 10.764C1.62101 9.63642 0.987549 8.10711 0.987549 6.5125C0.987549 4.91789 1.62101 3.38858 2.74857 2.26102C3.87613 1.13346 5.40544 0.5 7.00005 0.5Z" fill="#8CC9E1"/>
</svg>
