<svg width="66" height="66" viewBox="0 0 66 66" fill="none" xmlns="http://www.w3.org/2000/svg">
<path d="M33 0.5C41.6181 0.5 49.8834 3.92298 55.9781 10.0162C62.0728 16.1093 65.4978 24.3737 65.5 32.9919C65.5022 41.61 62.0812 49.8761 55.9896 55.9724C49.8979 62.0686 41.6344 65.4957 33.0163 65.5C24.3981 65.5043 16.1311 62.0855 10.0334 55.9953C3.93565 49.9052 0.506473 41.6425 0.500009 33.0244C0.493546 24.4062 3.91033 16.1384 9.99893 10.0391C16.0875 3.93988 24.3494 0.508634 32.9675 0.500016M32.9795 12.525C27.5501 12.5304 22.3451 14.6921 18.5093 18.5347C14.6735 22.3772 12.5209 27.5859 12.525 33.0154C12.5291 38.4448 14.6895 43.6503 18.531 47.4871C22.3726 51.3238 27.5808 53.4777 33.0102 53.475C38.4397 53.4723 43.6457 51.3132 47.4834 47.4726C51.3212 43.632 53.4764 38.4243 53.475 32.9949C53.4736 27.5655 51.3159 22.3589 47.4762 18.5202C43.6365 14.6815 38.4294 12.525 33 12.525" fill="#8CC9E1"/>
</svg>
