<svg width="66" height="65" viewBox="0 0 66 65" fill="none" xmlns="http://www.w3.org/2000/svg">
<path d="M33.2822 0C40.2986 0 47.1256 2.27715 52.737 6.48925C58.3485 10.7014 62.4413 16.6209 64.4005 23.3582C66.3597 30.0955 66.0794 37.2867 63.6018 43.8511C61.1241 50.4155 56.5829 55.9985 50.6606 59.7611C44.7383 63.5236 37.7549 65.2625 30.7598 64.7163C23.7646 64.1702 17.1357 61.3686 11.8691 56.7325C6.60255 52.0964 2.98285 45.8763 1.554 39.0069C0.12515 32.1375 0.964328 24.9899 3.94542 18.6383C4.621 17.1989 5.84071 16.0868 7.33624 15.5467C8.83176 15.0066 10.4806 15.0827 11.92 15.7583C13.3594 16.4338 14.4715 17.6535 15.0116 19.1491C15.5517 20.6446 15.4756 22.2934 14.8 23.7328C12.922 27.7344 12.3933 32.2373 13.2934 36.565C14.1936 40.8928 16.474 44.8114 19.792 47.7322C23.1099 50.6529 27.2861 52.4179 31.6931 52.762C36.1 53.1061 40.4996 52.0106 44.2306 49.6402C47.9617 47.2698 50.8226 43.7525 52.3835 39.6169C53.9445 35.4814 54.121 30.9509 52.8868 26.7064C51.6525 22.4619 49.0739 18.7326 45.5387 16.0789C42.0035 13.4253 37.7026 11.9907 33.2822 11.9907C32.4949 11.9907 31.7153 11.8356 30.9879 11.5343C30.2605 11.233 29.5996 10.7914 29.0429 10.2347C28.4862 9.67799 28.0445 9.01707 27.7432 8.28968C27.4419 7.56229 27.2869 6.78268 27.2869 5.99536C27.2869 5.20803 27.4419 4.42842 27.7432 3.70103C28.0445 2.97364 28.4862 2.31272 29.0429 1.756C29.5996 1.19928 30.2605 0.757664 30.9879 0.456369C31.7153 0.155074 32.4949 -1.1732e-08 33.2822 0Z" fill="#8CC9E1"/>
</svg>
