<svg width="40" height="66" viewBox="0 0 40 66" fill="none" xmlns="http://www.w3.org/2000/svg">
<path d="M7.00005 0.5C15.6168 0.5 23.8808 3.92187 29.9753 10.0133C36.0697 16.1047 39.4957 24.367 39.5 32.9837C39.5043 41.6005 36.0866 49.8662 29.9982 55.9637C23.9099 62.0612 15.6493 65.4914 7.03255 65.5C6.24298 65.5008 5.46098 65.346 4.73121 65.0446C4.00144 64.7432 3.33818 64.301 2.77931 63.7432C2.22044 63.1855 1.7769 62.5231 1.47401 61.7939C1.17113 61.0648 1.01483 60.2831 1.01404 59.4935C1.01325 58.7039 1.16799 57.9219 1.46941 57.1922C1.77084 56.4624 2.21306 55.7991 2.77081 55.2403C3.32856 54.6814 3.99093 54.2379 4.7201 53.935C5.44927 53.6321 6.23095 53.4758 7.02052 53.475C12.4491 53.4696 17.6532 51.3086 21.4889 47.4671C25.3246 43.6257 27.4778 38.4183 27.475 32.9898C27.4723 27.5612 25.3139 22.356 21.4744 18.5184C17.6349 14.6808 12.4286 12.525 7.00005 12.525C5.40544 12.525 3.87613 11.8915 2.74857 10.764C1.62101 9.63642 0.987549 8.10711 0.987549 6.5125C0.987549 4.91789 1.62101 3.38858 2.74857 2.26102C3.87613 1.13346 5.40544 0.5 7.00005 0.5Z" fill="#8CC9E1"/>
</svg>
